# xmcd
#
# Track frame offsets:
#	150
#	16528
#	33094
#	50576
#	69442
#	86924
#	104036
#	122433
#	141580
#	160788
#	176202
#	191317
#	209604
#	228402
#	246043
#
# Disc length: 3540 seconds
# Revision: 2
# Processed by: cddbd v1.5.2PL0 Copyright (c) Steve Scherf et al.
# Submitted via: dBpowerAMP V12.0
#
DISCID=cd0dd20f
DTITLE=LeToya,LeToyaNicoleLuckett,Houston,TX - Lady Love
DYEAR=2009
DGENRE=R&B
TTITLE0=Lady Love
TTITLE1=She Ain't Got...
TTITLE2=Not Anymore
TTITLE3=Lazy
TTITLE4=Good To Me
TTITLE5=Over
TTITLE6=Regret
TTITLE7=I Need A U
TTITLE8=Take Away Love
TTITLE9=After Party
TTITLE10=Drained
TTITLE11=Tears
TTITLE12=Matter
TTITLE13=Love Rollercoaster
TTITLE14=Don't Need U
EXTD=
EXTT0=
EXTT1=
EXTT2=
EXTT3=
EXTT4=
EXTT5=
EXTT6=
EXTT7=
EXTT8=
EXTT9=
EXTT10=
EXTT11=
EXTT12=
EXTT13=
EXTT14=
PLAYORDER=
